# xmcd
#
# Track frame offsets:
#	150
#	2042
#	11904
#	23840
#	37634
#	56010
#	67240
#	83377
#	100658
#	115917
#	127432
#	143339
#	165076
#	176710
#	187972
#
# Disc length: 2528 seconds
#
# Revision: 1
# Processed by: cddbd v1.5.2PL0 Copyright (c) Steve Scherf et al.
# Submitted via: audiograbber 1.83.01
#
DISCID=b609de0f
DTITLE=Looping Brothers - Wrong Road Again
DYEAR=1900
DGENRE=Country
TTITLE0=Theme Intro
TTITLE1=Wrong Road Again
TTITLE2=Kentucky In The Morning
TTITLE3=In The Jailhouse Now
TTITLE4=It's Me Again Lord
TTITLE5=Cold Wind
TTITLE6=The Engineers Don't Wave
TTITLE7=Rose Of Allendale
TTITLE8=Bitter Green
TTITLE9=Long Gone Lonesome Blues
TTITLE10=Gold Watch And Chain
TTITLE11=Old Time Riverman
TTITLE12=Tennessee
TTITLE13=Preachin', Prayin', Singin'
TTITLE14=Theme Outro
EXTD=
EXTT0=
EXTT1=
EXTT2=
EXTT3=
EXTT4=
EXTT5=
EXTT6=
EXTT7=
EXTT8=
EXTT9=
EXTT10=
EXTT11=
EXTT12=
EXTT13=
EXTT14=
PLAYORDER=
